    <svg width="29" height="32" viewBox="0 0 29 32" fill="none" xmlns="http://www.w3.org/2000/svg">
    <g id="Group">
    <path id="Vector" d="M14.0907 32L2.56783 28.8012L0 0H28.216L25.6454 28.7967L14.0907 32Z" fill="#264DE4"/>
    <path id="Vector_2" d="M23.4448 26.963L25.6415 2.35492H14.108V29.5515L23.4448 26.963Z" fill="#2965F1"/>
    <path id="Vector_3" d="M5.88669 13.0369L6.20328 16.5692H14.108V13.0369H5.88669Z" fill="#EBEBEB"/>
    <path id="Vector_4" d="M5.25054 5.88733L5.57165 9.41971H14.108V5.88733H5.25054Z" fill="#EBEBEB"/>
    <path id="Vector_5" d="M14.108 22.2107L14.0925 22.2149L10.1585 21.1526L9.90703 18.3354H6.36111L6.85599 23.8817L14.0917 25.8904L14.108 25.8859V22.2107Z" fill="#EBEBEB"/>
    <path id="Vector_6" d="M22.3067 13.0369L22.9444 5.88733H14.0958V9.41971H19.0732L18.7518 13.0369H14.0958V16.5692H18.4455L18.0355 21.1504L14.0958 22.2137V25.8887L21.3373 23.8817L21.3904 23.2849L22.2205 13.9854L22.3067 13.0369Z" fill="#EBEBEB"/>
    </g>
    </svg>
