    <svg width="32" height="32" viewBox="0 0 32 32" fill="none" xmlns="http://www.w3.org/2000/svg">
    <path d="M4.4375 28.75L1.875 0H30.0625L27.5 28.75L15.9375 32" fill="#E34F26"/>
    <path d="M16 29.5L25.3125 26.9375L27.5 2.3125H16" fill="#EF652A"/>
    <path d="M16 13H11.3125L11 9.375H16V5.875H7.125L8.0625 16.5625H16V13ZM15.9375 22.1875L12 21.125L11.75 18.3125H8.25L8.6875 23.875L15.9375 25.875V22.1875Z" fill="#EBEBEB"/>
    <path d="M15.9375 13V16.5625H20.3125L19.875 21.125L15.9375 22.1875V25.875L23.1875 23.875L24.1875 13H15.9375ZM15.9375 5.875V9.375H24.5L24.8125 5.875H15.9375Z" fill="#EBEBEB"/>
    </svg>
