    <svg width="36" height="32" viewBox="0 0 36 32" fill="none" xmlns="http://www.w3.org/2000/svg">
    <g id="react 1" clip-path="url(#clip0_3_76)">
    <g id="Group">
    <path id="Vector" d="M29.5415 10.3612C29.1688 10.2329 28.7826 10.1115 28.3849 9.99674C28.4503 9.72998 28.5103 9.46668 28.5636 9.20786C29.4391 4.95788 28.8667 1.53407 26.9119 0.406806C25.0375 -0.674091 21.9721 0.452918 18.8762 3.1472C18.5785 3.40628 18.28 3.68058 17.9815 3.96805C17.7827 3.77785 17.5842 3.59405 17.3862 3.41824C14.1416 0.537337 10.8894 -0.676713 8.9365 0.453813C7.06391 1.53784 6.50936 4.75655 7.29748 8.78428C7.37358 9.17332 7.46254 9.57061 7.56314 9.97454C7.10286 10.1052 6.65851 10.2445 6.23334 10.3927C2.42938 11.7189 0 13.7974 0 15.9534C0 18.1801 2.60794 20.4135 6.57006 21.7678C6.88273 21.8746 7.20717 21.9757 7.54153 22.0716C7.433 22.5085 7.3386 22.9366 7.25936 23.3542C6.50789 27.312 7.09474 30.4547 8.96234 31.5319C10.8914 32.6443 14.1289 31.5008 17.2814 28.7452C17.5306 28.5273 17.7807 28.2963 18.0312 28.0542C18.3559 28.3669 18.6801 28.6628 19.0025 28.9403C22.0561 31.568 25.072 32.6291 26.9379 31.5489C28.865 30.4333 29.4913 27.0573 28.6782 22.9499C28.6161 22.6362 28.5438 22.3157 28.4627 21.9896C28.69 21.9223 28.9132 21.853 29.1309 21.7808C33.2499 20.4161 35.9298 18.2098 35.9298 15.9534C35.9298 13.7896 33.4221 11.6971 29.5415 10.3612ZM28.6481 20.3239C28.4517 20.3889 28.2501 20.4518 28.0447 20.5127C27.59 19.0732 26.9762 17.5424 26.2252 15.9609C26.9419 14.417 27.5319 12.9058 27.9739 11.4756C28.3414 11.582 28.6982 11.6942 29.0419 11.8125C32.3668 12.9571 34.3949 14.6494 34.3949 15.9534C34.3949 17.3424 32.2046 19.1454 28.6481 20.3239ZM27.1725 23.248C27.532 25.0642 27.5834 26.7063 27.3452 27.99C27.1312 29.1435 26.7009 29.9126 26.1688 30.2206C25.0364 30.876 22.615 30.0241 20.0035 27.7768C19.7042 27.5192 19.4026 27.2441 19.1001 26.953C20.1125 25.8458 21.1243 24.5586 22.1119 23.129C23.8488 22.9749 25.4898 22.7229 26.978 22.3789C27.0513 22.6745 27.1164 22.9645 27.1725 23.248ZM12.2493 30.1073C11.143 30.498 10.2619 30.5092 9.72929 30.2021C8.59595 29.5484 8.12479 27.0252 8.76747 23.6404C8.84108 23.2528 8.9287 22.8546 9.02969 22.4476C10.5015 22.7731 12.1305 23.0073 13.8716 23.1484C14.8658 24.5473 15.9069 25.8331 16.956 26.959C16.7268 27.1803 16.4984 27.3909 16.2714 27.5894C14.8774 28.808 13.4804 29.6725 12.2493 30.1073ZM7.06647 20.3154C5.3145 19.7166 3.86765 18.9383 2.87591 18.089C1.98477 17.3259 1.53485 16.5682 1.53485 15.9534C1.53485 14.6451 3.4854 12.9763 6.73858 11.8421C7.1333 11.7045 7.54652 11.5748 7.97533 11.4529C8.42493 12.9154 9.01472 14.4445 9.72647 15.9908C9.00551 17.5599 8.40734 19.1134 7.95333 20.5931C7.64763 20.5052 7.35145 20.4127 7.06647 20.3154ZM8.8038 8.48952C8.12857 5.03865 8.57702 2.43545 9.70549 1.78221C10.9075 1.08632 13.5655 2.07852 16.367 4.56603C16.5461 4.72502 16.7259 4.89143 16.9061 5.0636C15.8622 6.18453 14.8307 7.46068 13.8453 8.85131C12.1555 9.00793 10.538 9.25953 9.05079 9.59644C8.95729 9.22033 8.87447 8.8508 8.8038 8.48952ZM24.3023 12.3165C23.9468 11.7024 23.5818 11.1028 23.2097 10.5196C24.3561 10.6645 25.4544 10.8569 26.4859 11.0923C26.1762 12.0848 25.7903 13.1225 25.3359 14.1862C25.01 13.5674 24.6653 12.9436 24.3023 12.3165ZM17.9821 6.16055C18.69 6.92755 19.399 7.78391 20.0964 8.71304C19.3937 8.67985 18.6822 8.66258 17.9649 8.66258C17.2544 8.66258 16.5482 8.67946 15.8498 8.71208C16.5479 7.79158 17.263 6.93638 17.9821 6.16055ZM11.6213 12.3271C11.2662 12.9429 10.9279 13.5634 10.6071 14.1851C10.1601 13.125 9.7777 12.0826 9.46535 11.0761C10.4905 10.8467 11.5836 10.6591 12.7227 10.5169C12.3454 11.1055 11.9774 11.7096 11.6213 12.3271ZM12.7556 21.4994C11.5787 21.3681 10.469 21.1901 9.44418 20.9671C9.76152 19.9426 10.1523 18.8779 10.6088 17.795C10.9304 18.4162 11.2701 19.037 11.6274 19.6541C11.9914 20.2829 12.3685 20.8988 12.7556 21.4994ZM18.0245 25.8545C17.297 25.0696 16.5714 24.2013 15.8627 23.2674C16.5507 23.2944 17.2521 23.3082 17.9649 23.3082C18.6973 23.3082 19.4212 23.2917 20.1338 23.26C19.4341 24.2107 18.7277 25.0803 18.0245 25.8545ZM25.3506 17.7398C25.8308 18.8344 26.2357 19.8935 26.5571 20.9005C25.5153 21.1382 24.3906 21.3296 23.2055 21.4719C23.5785 20.8808 23.9467 20.2709 24.3084 19.6436C24.6745 19.0089 25.022 18.3733 25.3506 17.7398ZM22.9789 18.8768C22.4172 19.8506 21.8406 20.7802 21.2552 21.6578C20.1891 21.734 19.0876 21.7733 17.9649 21.7733C16.8468 21.7733 15.7592 21.7385 14.7119 21.6706C14.1029 20.7815 13.5137 19.8491 12.9557 18.8851C12.3991 17.9238 11.8869 16.9543 11.4227 15.9902C11.8868 15.024 12.3977 14.0534 12.9511 13.0937L12.951 13.0939C13.5059 12.1317 14.0898 11.2039 14.6932 10.3204C15.7617 10.2396 16.8575 10.1975 17.9648 10.1975C19.0772 10.1975 20.1744 10.24 21.2427 10.3214C21.8368 11.1984 22.4168 12.1233 22.9738 13.0856C23.5372 14.0587 24.0547 15.0229 24.5228 15.9684C24.0561 16.9302 23.5398 17.9041 22.9789 18.8768ZM26.1452 1.73655C27.3484 2.43039 27.8163 5.22866 27.0603 8.89806C27.0121 9.1322 26.9578 9.37068 26.8989 9.61237C25.4082 9.26842 23.7895 9.01247 22.0948 8.85348C21.1075 7.44757 20.0844 6.16944 19.0575 5.06289C19.3336 4.79729 19.6093 4.54403 19.8839 4.30503C22.5365 1.99659 25.0157 1.08517 26.1452 1.73655ZM17.9649 12.745C19.7368 12.745 21.1733 14.1814 21.1733 15.9534C21.1733 17.7253 19.7368 19.1618 17.9649 19.1618C16.193 19.1618 14.7565 17.7253 14.7565 15.9534C14.7565 14.1814 16.193 12.745 17.9649 12.745Z" fill="#00D8FF"/>
    </g>
    </g>
    <defs>
    <clipPath id="clip0_3_76">
    <rect width="35.9298" height="32" fill="white"/>
    </clipPath>
    </defs>
    </svg>
